<svg width="24" height="30" viewBox="0 0 24 30" fill="none" xmlns="http://www.w3.org/2000/svg">
<path d="M12 13.5332C8.66602 13.5332 5.96484 16.2344 5.96484 19.5684C5.96484 22.9023 8.66602 25.6035 12 25.6035C15.334 25.6035 18.0352 22.9023 18.0352 19.5684C18.0352 16.2344 15.334 13.5332 12 13.5332ZM12.9141 17.7402H14.7188C14.9062 17.7402 15.0586 17.8926 15.0586 18.0801C15.0586 18.2676 14.9062 18.4199 14.7188 18.4199H12.9258C12.7617 19.416 11.9004 20.1543 10.8867 20.1543H10.1016L12.4746 22.5273C12.6035 22.6621 12.5918 22.8789 12.457 23.0078C12.3281 23.1309 12.123 23.1309 11.9941 23.0078L9.04688 20.0605C8.91211 19.9316 8.91211 19.7148 9.04688 19.5859C9.11133 19.5215 9.19922 19.4863 9.28711 19.4863H10.8867C11.5254 19.4863 12.082 19.0469 12.2344 18.4258H9.28711C9.09961 18.4258 8.94727 18.2734 8.94727 18.0859C8.94727 17.8984 9.09961 17.7461 9.28711 17.7461H12.2285C12.0703 17.1367 11.5195 16.7148 10.8867 16.7148H9.28711C9.09961 16.7207 8.94141 16.5801 8.93555 16.3926C8.92969 16.2051 9.07031 16.0469 9.25781 16.041H9.28711H14.7188C14.9062 16.0469 15.0527 16.2051 15.041 16.3926C15.0352 16.5684 14.8945 16.709 14.7188 16.7148H12.4102C12.6738 16.9961 12.8496 17.3535 12.9141 17.7402Z" fill="#E07A5F"/>
<path d="M16.1719 9.34375C15.8203 9.57227 15.416 9.69531 14.9941 9.69531H9.00586C8.58984 9.69531 8.17969 9.57227 7.82812 9.34375C3.43945 11.2012 0.322266 15.8008 0.322266 20.4766C0.322266 26.5293 5.55469 29.998 12 29.998C18.4453 29.998 23.6777 26.5293 23.6777 20.4766C23.6777 15.8008 20.5605 11.1953 16.1719 9.34375ZM12 26.248C8.30859 26.248 5.32031 23.2598 5.32031 19.5684C5.32031 15.877 8.30859 12.8887 12 12.8887C15.6914 12.8887 18.6797 15.877 18.6797 19.5684C18.6738 23.2539 15.6855 26.2422 12 26.248Z" fill="#E07A5F"/>
<path d="M9.25787 5.40723H14.7422L16.0899 2.87012C16.5469 2.0791 16.2715 1.07129 15.4864 0.614258C15.3575 0.538086 15.2227 0.485352 15.0821 0.450195C12.8145 -0.147461 11.1915 -0.147461 8.92389 0.450195C8.03912 0.678711 7.51178 1.58105 7.74029 2.45996C7.77545 2.60059 7.83404 2.74121 7.91021 2.87012L9.25787 5.40723Z" fill="#E07A5F"/>
<path d="M9.00586 6.05078H14.9941C15.8203 6.05078 16.4941 6.72461 16.4941 7.55078C16.4941 8.37695 15.8203 9.05078 14.9941 9.05078H9.00586C8.17969 9.05078 7.50586 8.37695 7.50586 7.55078C7.50586 6.72461 8.17969 6.05078 9.00586 6.05078Z" fill="#E07A5F"/>
</svg>
