<svg width="35" height="30" viewBox="0 0 35 30" fill="none" xmlns="http://www.w3.org/2000/svg">
<path d="M28.4388 18.9861L12.2254 18.9865C12.0962 18.9882 11.9694 18.9521 11.862 18.8829C11.7545 18.8136 11.6713 18.7146 11.6235 18.5988C11.5729 18.4895 11.557 18.3682 11.5777 18.2501C11.5985 18.1321 11.6551 18.0226 11.7402 17.9355C11.8116 17.8768 11.8638 17.7993 11.8904 17.7125C11.917 17.6257 11.917 17.5334 11.8903 17.4466L8.41373 6.13273C8.2628 5.64933 7.9549 5.22541 7.53536 4.9234C7.11581 4.62138 6.60679 4.45722 6.08323 4.45508H2.67364C2.54471 4.45508 2.42106 4.50446 2.32989 4.59237C2.23872 4.68028 2.1875 4.79951 2.1875 4.92383C2.1875 5.04815 2.23872 5.16738 2.32989 5.25528C2.42106 5.34319 2.54471 5.39258 2.67364 5.39258H6.08324C6.39737 5.3938 6.7028 5.49227 6.9545 5.6735C7.20621 5.85472 7.3909 6.10911 7.48135 6.39919L10.8843 17.4732C10.7175 17.7086 10.6205 17.9834 10.6037 18.268C10.5869 18.5526 10.651 18.8362 10.7889 19.0883C10.9269 19.3404 11.1336 19.5515 11.3867 19.6987C11.6398 19.846 11.9298 19.9239 12.2254 19.924L28.4388 19.9236C28.5677 19.9236 28.6914 19.8742 28.7826 19.7863C28.8737 19.6984 28.9249 19.5791 28.9249 19.4548C28.9249 19.3305 28.8737 19.2113 28.7826 19.1234C28.6914 19.0355 28.5677 18.9861 28.4388 18.9861Z" fill="#E07A5F"/>
<path d="M12.9019 17.7045C12.9302 17.8029 12.9912 17.8896 13.0755 17.9514C13.1598 18.0132 13.2627 18.0467 13.3686 18.0467H27.4665C27.5851 18.0461 27.6993 18.0039 27.7879 17.9279C27.8764 17.852 27.9333 17.7476 27.9478 17.6342L29.4063 6.38437C29.4145 6.31866 29.4082 6.25202 29.3877 6.18883C29.3673 6.12564 29.3333 6.06733 29.2878 6.01773C29.2423 5.96814 29.1865 5.92839 29.124 5.9011C29.0614 5.87381 28.9936 5.85959 28.925 5.85938H10.0338C9.95895 5.85993 9.88528 5.87706 9.81843 5.90944C9.75159 5.94182 9.69336 5.98859 9.64825 6.04613C9.60314 6.10368 9.57236 6.17045 9.55828 6.24129C9.5442 6.31213 9.5472 6.38514 9.56706 6.45469L12.9019 17.7045Z" fill="#E07A5F"/>
<path d="M13.855 25.5469C15.1975 25.5469 16.2857 24.4975 16.2857 23.2031C16.2857 21.9087 15.1975 20.8594 13.855 20.8594C12.5126 20.8594 11.4243 21.9087 11.4243 23.2031C11.4243 24.4975 12.5126 25.5469 13.855 25.5469Z" fill="#E07A5F"/>
<path d="M25.5218 25.5469C26.8642 25.5469 27.9525 24.4975 27.9525 23.2031C27.9525 21.9087 26.8642 20.8594 25.5218 20.8594C24.1793 20.8594 23.0911 21.9087 23.0911 23.2031C23.0911 24.4975 24.1793 25.5469 25.5218 25.5469Z" fill="#E07A5F"/>
</svg>
