<svg width="35" height="30" viewBox="0 0 35 30" fill="none" xmlns="http://www.w3.org/2000/svg">
<g clip-path="url(#clip0_1_593)">
<path d="M25.2227 15.414V15.8073C25.2227 16.2893 25.3004 16.7681 25.4527 17.2252L26.3437 19.898H28.0251V13.7324H26.9041C25.9755 13.7325 25.2227 14.4853 25.2227 15.414Z" fill="#5A4146"/>
<path d="M32.8971 16.578L31.9486 19.8977L27.4646 15.9742C26.8455 15.9742 26.3436 15.4723 26.3436 14.8532C26.3436 13.9246 27.0964 13.1718 28.0251 13.1718H31.9486C32.5677 13.1718 33.0696 13.6737 33.0696 14.2927V15.3463C33.0696 15.7628 33.0115 16.1774 32.8971 16.578Z" fill="#694B4B"/>
<path d="M30.8273 21.5801H27.4644V24.0608H30.8273V21.5801Z" fill="#E6AF78"/>
<path d="M27.4646 22.6096C27.9844 22.8209 28.5513 22.9398 29.1461 22.9398C29.7409 22.9398 30.3077 22.8209 30.8276 22.6096V21.5801H27.4646V22.6096Z" fill="#D29B6E"/>
<path d="M33.5314 23.7121L30.8274 22.9395L29.146 24.0553L27.4645 22.9395L24.7606 23.7121C24.0387 23.9183 23.541 24.5781 23.541 25.3289V29.4268C23.541 29.7364 23.7919 29.9873 24.1015 29.9873H34.1905C34.5001 29.9873 34.751 29.7364 34.751 29.4268V25.3289C34.751 24.5781 34.2533 23.9183 33.5314 23.7121Z" fill="#D5DCED"/>
<path d="M29.7067 29.9873H28.5857L28.8659 24.0605H29.4264L29.7067 29.9873Z" fill="#AFB9D2"/>
<path d="M29.1462 22.1391C27.2888 22.1391 25.7832 20.6334 25.7832 18.7761V18.1195C25.7832 17.8222 25.9013 17.537 26.1115 17.3268L27.1279 16.3104C27.3431 16.0951 27.6374 15.9714 27.9416 15.981C29.7334 16.0375 31.3193 16.4213 32.1862 17.2681C32.3985 17.4754 32.5092 17.7653 32.5092 18.0619V18.7761C32.5092 20.6335 31.0035 22.1391 29.1462 22.1391Z" fill="#F0C087"/>
<path d="M27.4647 18.2585C27.4647 17.612 28.0077 17.098 28.653 17.1392C29.7845 17.2114 31.4635 17.4005 32.4936 17.896C32.46 17.6595 32.3584 17.4363 32.1862 17.2681C31.3193 16.4213 29.7334 16.0375 27.9416 15.981L27.9416 15.9811C27.6374 15.9715 27.3431 16.0952 27.1279 16.3104L26.1116 17.3267C25.9013 17.5369 25.7832 17.822 25.7832 18.1194V18.7761C25.7832 20.3097 26.8109 21.601 28.2144 22.0054C27.7473 21.429 27.4648 20.6974 27.4648 19.8971L27.4647 18.2585Z" fill="#E6AF78"/>
<path d="M32.509 26.999C32.509 26.553 32.6862 26.1253 33.0015 25.81L34.4443 24.3672C34.6371 24.6428 34.751 24.9747 34.751 25.3289V29.4268C34.751 29.7364 34.5001 29.9873 34.1905 29.9873H32.509V26.999Z" fill="#C7CFE2"/>
<path d="M29.4264 25.1815H28.8659C28.7112 25.1815 28.5857 25.056 28.5857 24.9013V24.0605H29.7067V24.9013C29.7067 25.056 29.5813 25.1815 29.4264 25.1815Z" fill="#959CB5"/>
<path d="M29.1461 24.0549L28.1961 24.7805C28.0324 24.9055 27.7958 24.8554 27.6969 24.6748L26.8447 23.1184L27.1877 22.5952C27.2638 22.4791 27.426 22.4594 27.5277 22.5537L29.1461 24.0549Z" fill="#C7CFE2"/>
<path d="M29.1461 24.0549L30.0961 24.7806C30.2597 24.9057 30.4963 24.8556 30.5952 24.6749L31.4474 23.1186L31.1044 22.5953C31.0283 22.4793 30.8662 22.4595 30.7644 22.5538L29.1461 24.0549Z" fill="#C7CFE2"/>
<path d="M10.0331 21.9066C9.55413 20.6375 9.17425 18.4558 9.09219 17.32C8.93608 15.1585 7.30719 13.3965 5.10524 13.3965C2.9033 13.3965 1.27441 15.1585 1.1183 17.32C1.03624 18.4558 0.656351 20.6375 0.177369 21.9066C0.0718264 22.1864 0.193659 22.4948 0.469157 22.6197C0.982415 22.8523 2.07674 23.308 3.39653 23.4855H6.81388C8.1275 23.3076 9.2295 22.8517 9.74126 22.6197C10.0168 22.4948 10.1387 22.1864 10.0331 21.9066Z" fill="#5A4146"/>
<path d="M9.74141 22.6197C10.0168 22.4948 10.1387 22.1864 10.0331 21.9066C9.55422 20.6375 9.17426 18.4558 9.09227 17.32C8.93623 15.1585 7.30727 13.3965 5.10539 13.3965C5.09983 13.3965 5.09433 13.3965 5.08876 13.3966C3.39919 13.4034 2.80211 15.7076 4.25657 16.5674C4.34392 16.619 4.39992 16.6439 4.39992 16.6439L5.67383 23.4855H6.81404C8.12766 23.3075 9.22965 22.8516 9.74141 22.6197Z" fill="#694B4B"/>
<path d="M9.1595 24.6107L7.34566 23.7039C6.96584 23.5139 6.72591 23.1257 6.72597 22.7011L6.72611 21.0195H3.36299V22.7012C3.36299 23.1258 3.12312 23.5139 2.7433 23.7038L0.929457 24.6107C0.359796 24.8955 0 25.4777 0 26.1146V29.4269C0 29.7364 0.250928 29.9874 0.560498 29.9874H9.52853C9.8381 29.9874 10.089 29.7364 10.089 29.4269V26.1146C10.089 25.4777 9.72916 24.8955 9.1595 24.6107Z" fill="#E6AF78"/>
<path d="M5.0446 23.2615C5.64813 23.2615 6.2262 23.1371 6.75616 22.9156C6.74224 22.845 6.72602 22.7747 6.72602 22.7011L6.72616 21.0195H3.36304V22.7012C3.36304 22.7752 3.34681 22.8458 3.33276 22.9167C3.86306 23.137 4.44086 23.2615 5.0446 23.2615Z" fill="#D29B6E"/>
<path d="M9.1595 24.611L7.86733 23.9649C7.26815 24.8902 6.22894 25.5038 5.04455 25.5038C3.86016 25.5038 2.82088 24.8902 2.2217 23.9648L0.929525 24.611C0.359864 24.8958 0 25.478 0 26.1149V29.4272C0 29.7368 0.250928 29.9877 0.560498 29.9877H9.52853C9.8381 29.9877 10.089 29.7368 10.089 29.4272V26.1149C10.089 25.478 9.72916 24.8958 9.1595 24.611Z" fill="#D5DCED"/>
<path d="M5.04466 22.14C3.33479 22.14 1.92303 20.864 1.70957 19.2123C1.67862 18.973 1.79366 18.7384 2.00909 18.6297C2.26715 18.4995 2.64215 18.28 3.0012 17.9596C3.40104 17.6029 3.63561 17.2267 3.7681 16.9505C3.88219 16.7127 4.14445 16.5781 4.40007 16.6434C6.37355 17.1467 7.7171 18.1734 8.20457 18.5926C8.33543 18.7052 8.41084 18.8711 8.3974 19.0432C8.26158 20.776 6.81242 22.14 5.04466 22.14Z" fill="#F0C087"/>
<path d="M8.20448 18.5926C7.71708 18.1734 6.37346 17.1467 4.39998 16.6434C4.14437 16.5781 3.88211 16.7127 3.76801 16.9505C3.66769 17.1597 3.50188 17.4262 3.25584 17.6982C3.25577 17.6989 3.25557 17.6994 3.2555 17.7001C3.17914 17.7866 3.09783 17.8734 3.00118 17.9597C2.64213 18.2801 2.26713 18.4996 2.00907 18.6298C1.79364 18.7384 1.67867 18.9731 1.70955 19.2124C1.90129 20.6958 3.06206 21.8765 4.53478 22.1017C3.86371 21.6452 3.36315 21.0174 3.36315 19.8982V19.0989C3.49048 19.0049 3.61869 18.9112 3.74751 18.7962C4.05905 18.5182 4.33102 18.1967 4.5491 17.8505C6.0588 18.3216 7.08233 19.1063 7.47036 19.44C7.57659 19.5331 7.84021 19.7761 8.14862 20.0654C8.28132 19.7461 8.36908 19.4034 8.39724 19.0434C8.41075 18.8712 8.33534 18.7052 8.20448 18.5926Z" fill="#E6AF78"/>
<path d="M0.341674 25.1036C0.125769 25.3902 0 25.7417 0 26.114V29.4264C0 29.7359 0.250928 29.9868 0.560498 29.9868H2.24199V27.1626C2.24199 26.8221 2.08717 26.5 1.82124 26.2873L0.341674 25.1036Z" fill="#C7CFE2"/>
<path d="M25.4281 23.846L20.7384 22.1406L17.3755 23.2617L14.0125 22.1407L9.32276 23.8461C8.43674 24.1683 7.84692 25.0103 7.84692 25.9531V29.4272C7.84692 29.7367 8.09785 29.9877 8.40742 29.9877H26.3435C26.653 29.9877 26.904 29.7367 26.904 29.4272V25.9531C26.904 25.0102 26.3142 24.1682 25.4281 23.846Z" fill="#FF507D"/>
<path d="M16.7885 24.3828L16.2546 29.9877H18.4966L17.9628 24.3828H16.7885Z" fill="#707487"/>
<path d="M17.9641 25.1528H16.7872C16.5704 25.1528 16.3948 24.9771 16.3948 24.7604V23.2617H18.3564V24.7604C18.3564 24.9771 18.1808 25.1528 17.9641 25.1528Z" fill="#5B5D6E"/>
<path d="M26.3007 24.4238C26.6791 24.83 26.904 25.3711 26.904 25.9514V29.4255C26.904 29.7351 26.6531 29.986 26.3435 29.986H23.541V28.1122C23.541 27.5176 23.7772 26.9473 24.1977 26.5269L26.3007 24.4238Z" fill="#D23C69"/>
<path d="M23.541 10.5801V5.88467C23.541 5.26553 23.0391 4.76367 22.4201 4.76367H15.694C13.2176 4.76367 11.21 6.77123 11.21 9.24772V10.5801C11.21 11.1826 11.3071 11.7811 11.4976 12.3526L11.6842 12.9123C11.7413 13.0838 11.7705 13.2633 11.7705 13.4441V13.7317H22.9805V13.4441C22.9805 13.2633 23.0096 13.0838 23.0668 12.9123L23.2533 12.3526C23.4439 11.781 23.541 11.1825 23.541 10.5801Z" fill="#5A4146"/>
<path d="M14.0127 7.04069C14.0127 8.29824 15.0322 9.3177 16.2897 9.3177H16.605L16.7572 13.7316H22.9807V13.444C22.9807 13.2632 23.0098 13.0837 23.0669 12.9123L23.2535 12.3525C23.444 11.781 23.5412 11.1825 23.5412 10.5801V5.88467C23.5412 5.26553 23.0392 4.76367 22.4202 4.76367H16.2897C15.0322 4.76367 14.0127 5.78313 14.0127 7.04069Z" fill="#694B4B"/>
<path d="M20.7387 18.2166H14.0125V23.2609H20.7387V18.2166Z" fill="#E6AF78"/>
<path d="M14.0125 20.1121C15.0027 20.6857 16.149 21.0193 17.3755 21.0193C18.602 21.0193 19.7484 20.6857 20.7385 20.1121V18.2168H14.0125L14.0125 20.1121Z" fill="#D29B6E"/>
<path d="M17.3756 23.2613L15.5879 25.0489C15.3477 25.2892 14.9505 25.2621 14.7452 24.9914L12.8916 22.5491L13.3764 21.5274C13.5195 21.2259 13.8927 21.1154 14.1768 21.2905L17.3756 23.2613Z" fill="#D23C69"/>
<path d="M17.3756 23.2613L19.1632 25.0489C19.4035 25.2892 19.8006 25.2621 20.006 24.9914L21.8596 22.5491L21.3747 21.5274C21.2317 21.2259 20.8585 21.1154 20.5744 21.2905L17.3756 23.2613Z" fill="#D23C69"/>
<path d="M17.3756 19.8978C14.28 19.8978 11.7705 17.3883 11.7705 14.2928V13.6361C11.7705 13.3388 11.8886 13.0537 12.0988 12.8434L12.5631 12.3791C12.7733 12.1689 12.8914 11.8837 12.8914 11.5864V10.2428C12.8914 9.98322 13.0657 9.75775 13.3183 9.69809C14.6439 9.38499 18.7691 8.64334 21.5764 10.708C21.7587 10.8421 21.8595 11.0623 21.8595 11.2886V11.5864C21.8595 11.8837 21.9776 12.1688 22.1878 12.3791L22.6521 12.8434C22.8623 13.0536 22.9804 13.3387 22.9804 13.6361V14.2928C22.9806 17.3883 20.4711 19.8978 17.3756 19.8978Z" fill="#F0C087"/>
<path d="M21.5764 10.7072C19.602 9.25507 16.9793 9.19222 15.1336 9.39102C14.355 9.47485 13.7117 9.60442 13.3184 9.69727C13.0659 9.75693 12.8916 9.9824 12.8916 10.242V11.5855C12.8916 11.8829 12.7735 12.168 12.5632 12.3783L12.0989 12.8426C11.8886 13.0529 11.7705 13.338 11.7705 13.6353V14.292C11.7705 17.1578 13.9228 19.5172 16.6982 19.8521C15.7311 18.845 15.1335 17.4801 15.1335 15.9734V11.8765C15.1335 11.3085 15.5559 10.8338 16.1194 10.7632C17.4645 10.5945 19.9282 10.4931 21.8595 11.5856V11.2878C21.8596 11.0615 21.7586 10.8412 21.5764 10.7072Z" fill="#E6AF78"/>
<path d="M8.45025 24.4238C8.07179 24.83 7.84692 25.3711 7.84692 25.9514V29.4255C7.84692 29.7351 8.09785 29.986 8.40742 29.986H11.2099V28.1122C11.2099 27.5176 10.9737 26.9473 10.5532 26.5269L8.45025 24.4238Z" fill="#D23C69"/>
</g>
<defs>
<clipPath id="clip0_1_593">
<rect width="34.7511" height="30" fill="white"/>
</clipPath>
</defs>
</svg>
