<svg width="30" height="30" viewBox="0 0 30 30" fill="none" xmlns="http://www.w3.org/2000/svg">
<path d="M5.10984 13.6208C13.3201 10.7019 16.3226 7.12085 17.3956 5.17138L16.4153 4.75015C16.1503 4.6363 16.1193 4.26136 16.383 4.11482L20.1548 2.0195C20.3578 1.90671 20.6121 2.01599 20.67 2.24087L21.7462 6.41925C21.8214 6.71146 21.528 6.94712 21.263 6.83304L20.0842 6.32656C17.4129 9.71486 13.0468 13.5669 5.10984 13.6208ZM22.884 9.99992H23.9422V24.0204C23.9422 24.2141 24.1001 24.372 24.2938 24.372H27.3111C27.5047 24.372 27.6626 24.2141 27.6626 24.0204V9.99992H28.7209C29.0756 9.99992 29.2738 9.59251 29.0549 9.31343L26.4705 6.01835C26.1306 5.58511 25.4742 5.58511 25.1344 6.01835L22.55 9.31343C22.3311 9.59257 22.5293 9.99992 22.884 9.99992ZM17.6965 12.7482C17.5029 12.7482 17.345 12.9061 17.345 13.0998V24.0205C17.345 24.2141 17.5029 24.372 17.6965 24.372H20.7138C20.9075 24.372 21.0654 24.2141 21.0654 24.0205C21.0654 20.3802 21.0654 16.74 21.0654 13.0998C21.0654 12.9061 20.9075 12.7482 20.7138 12.7482C19.7081 12.7482 18.7024 12.7482 17.6965 12.7482ZM11.0994 15.4964C10.9057 15.4964 10.7478 15.6543 10.7478 15.848V24.0205C10.7478 24.2141 10.9057 24.372 11.0994 24.372H14.1166C14.3103 24.372 14.4682 24.2141 14.4682 24.0205C14.4682 21.2963 14.4682 18.5722 14.4682 15.848C14.4682 15.6544 14.3103 15.4964 14.1166 15.4964C13.1109 15.4964 12.1052 15.4964 11.0994 15.4964ZM28.7515 26.5238H1.99887V3.64109C1.99887 3.22665 1.66289 2.89067 1.24846 2.89067C0.834023 2.89067 0.498047 3.22665 0.498047 3.64109V27.2742C0.498047 27.6886 0.834023 28.0246 1.24846 28.0246H28.7515C29.166 28.0246 29.502 27.6886 29.502 27.2742C29.502 26.8598 29.166 26.5238 28.7515 26.5238ZM4.50223 24.372H7.51951C7.71316 24.372 7.87107 24.2141 7.87107 24.0204V18.5962C7.87107 18.4026 7.71316 18.2446 7.51951 18.2446H4.50223C4.30857 18.2446 4.15066 18.4026 4.15066 18.5962V24.0204C4.15066 24.2141 4.30857 24.372 4.50223 24.372Z" fill="#FF507D"/>
</svg>
